# xmcd
#
# Track frame offsets:
#	150
#	14449
#	32414
#	62358
#	92927
#	113271
#	128913
#	154479
#	177300
#	197496
#	215281
#	241419
#	260002
#	286808
#	303459
#
# Disc length: 4288 seconds
#
# Revision: 0
# Processed by: cddbd v1.4PL0 Copyright (c) Steve Scherf et al.
# Submitted via: audiograbber 1.80
#
DISCID=c810be0f
DTITLE=Various Artist - Greatest Hits Of Soul And R&B Disk 5
DYEAR=1900
DGENRE=
TTITLE0=Wild Cherry - Play That Funky Music
TTITLE1=Average White Band - Pick Up The Pieces
TTITLE2=James Brown - Sex Machine (Live)
TTITLE3=Joe Tex - Loose Caboose
TTITLE4=Peter Brown - Do You Wanna Get Funky With Me
TTITLE5=Sylvers - Boogie Fever
TTITLE6=Foxy - Get Off
TTITLE7=Sun - Sun Is Here
TTITLE8=Funkadelic - (Not Just) Knee Deep
TTITLE9=O'Bryan - Lovelite
TTITLE10=Evelyn (Champagne) King - Flirt
TTITLE11=Donna Allen - Joy And Pain
TTITLE12=Loose Ends - Hanging On A String
TTITLE13=Debarge - Dance All Night
TTITLE14=KC and The Sunshine Band - Give It Up
EXTD=
EXTT0=
EXTT1=
EXTT2=
EXTT3=
EXTT4=
EXTT5=
EXTT6=
EXTT7=
EXTT8=
EXTT9=
EXTT10=
EXTT11=
EXTT12=
EXTT13=
EXTT14=
PLAYORDER=
